<svg width="737" height="425" viewBox="0 0 737 425" fill="none" xmlns="http://www.w3.org/2000/svg">
<path d="M500.519 140.01H347.561C322.731 140.01 302.369 122.308 302.369 100.72V39.6694C302.369 18.0815 322.731 0.379532 347.561 0.379532H500.519C525.349 0.379532 545.711 18.0815 545.711 39.6694V100.72C545.711 122.308 525.349 140.01 500.519 140.01Z" fill="#FFC059"/>
<path d="M475.887 248.294C475.887 248.294 480.455 244.236 479.264 237.327C478.072 230.419 476.979 225.325 468.537 223.079C460.094 220.834 450.956 220.144 447.877 212.804C447.877 212.804 447.083 208.918 448.771 199.333C450.46 189.748 456.32 163.842 456.32 163.842C456.32 163.842 457.214 151.063 442.415 145.104C427.715 139.146 414.108 138.887 414.108 138.887C414.108 138.887 392.257 139.75 383.318 142.082C374.379 144.413 373.385 155.466 373.485 159.957C373.584 164.447 373.485 169.455 373.485 169.455L419.471 198.038C419.471 198.038 410.433 202.873 407.552 215.049C404.672 227.224 407.85 238.968 416.491 243.717C425.133 248.38 445.394 250.107 460.392 241.386L475.887 248.294Z" fill="#1A1A1A"/>
<path d="M328.789 410.98L405.467 411.671C405.467 411.671 392.455 397.423 391.164 388.701C391.164 388.701 333.358 410.375 328.789 410.98Z" fill="#1A1A1A"/>
<path d="M87.534 262.801L100.943 256.67H287.868L298.694 260.47L305.349 267.896L348.455 379.721L350.342 388.442L349.25 395.696L343.489 403.985L337.331 408.476L330.478 410.98H318.758L135.408 411.843L87.534 262.801Z" fill="white"/>
<path d="M620.898 379.289V377.303C620.898 377.303 615.634 374.453 597.954 374.453C580.374 374.453 577.494 377.994 577.494 377.994V420.824C577.494 420.824 583.255 423.328 599.047 423.328C614.839 423.328 620.501 420.824 620.501 420.824L621.295 413.829C621.295 413.829 640.862 412.189 640.862 396.732C640.862 381.275 629.837 380.843 620.898 379.289ZM621.196 407.785V385.506C621.196 385.506 633.711 384.038 634.207 393.451C634.903 404.331 621.196 407.785 621.196 407.785Z" fill="#1A1A1A"/>
<path d="M660.131 123.344H523.462C509.855 123.344 498.731 133.015 498.731 144.845V177.054V224.461L528.528 198.556H660.23C673.837 198.556 684.961 188.884 684.961 177.054V144.845C684.961 133.015 673.837 123.344 660.131 123.344Z" fill="#1A1A1A"/>
<path d="M170.568 168.765L158.153 138.11H87.534L105.213 181.458H174.739L170.568 168.765Z" fill="#FFC059"/>
<path d="M311.706 411.757H136.5C124.979 411.757 114.748 405.626 111.073 396.473L69.4572 292.074C63.6965 277.653 76.6084 262.801 94.8839 262.801H270.089C281.611 262.801 291.841 268.932 295.516 278.085L337.033 382.398C342.893 396.818 329.981 411.757 311.706 411.757Z" fill="#1A1A1A"/>
<path d="M392.058 233.096C392.058 233.096 358.189 237.068 343.489 253.907C328.789 270.745 316.076 292.679 316.076 292.679L348.058 378.771C348.058 378.771 351.534 372.035 354.117 371.69C356.699 371.345 364.844 371.69 367.625 374.367C367.625 374.367 376.166 370.826 386.496 376.439C386.496 376.439 397.223 375.23 406.758 379.807C416.293 384.297 424.735 387.492 424.735 387.492C424.735 387.492 425.629 404.072 412.817 411.325L535.878 411.757C535.878 411.757 545.313 394.4 544.022 379.721C542.632 365.041 537.268 337.668 530.117 324.715C523.065 311.762 515.218 294.06 505.783 281.28C496.347 268.5 487.507 258.138 478.568 250.453L461.683 241.3C461.683 241.3 442.812 249.158 428.609 247.085C414.306 245.013 413.512 241.818 413.512 241.818C413.512 241.818 403.182 254.943 396.925 254.08C390.568 253.216 392.058 233.096 392.058 233.096Z" fill="#FFC059"/>
<path d="M598.749 377.303C589.115 377.303 581.367 378.684 581.367 380.411L598.749 381.275L616.131 380.411C616.131 378.771 608.383 377.303 598.749 377.303Z" fill="white"/>
<path d="M379.047 152.703C379.047 152.703 374.776 165.569 374.379 168.678C373.981 171.7 373.683 189.23 373.087 194.67C372.392 200.11 375.272 218.935 390.568 217.294L392.157 233.096C392.157 233.096 390.568 253.648 396.925 254.08C403.282 254.425 413.512 241.818 413.512 241.818C413.512 241.818 405.864 235.859 406.261 223.77C406.659 211.681 412.817 202.96 420.762 198.038C420.762 198.038 415.598 187.503 419.57 180.94C419.57 180.94 403.083 178.609 395.435 172.305C387.688 165.915 383.02 162.374 379.047 152.703Z" fill="white"/>
<path d="M425.232 387.751C425.232 387.751 413.412 381.361 403.381 378.425C393.349 375.489 387.886 376.439 387.886 376.439C387.886 376.439 380.04 373.762 376.166 373.331C372.293 372.899 368.221 374.712 368.221 374.712C368.221 374.712 364.546 371.776 359.381 371.69C354.216 371.69 350.243 374.108 348.157 378.684C348.157 378.684 351.236 386.111 350.342 390.342C349.548 394.487 346.27 405.626 337.331 408.476C337.331 408.476 342.595 414.261 350.442 408.13C350.442 408.13 355.706 412.707 369.214 411.757C369.214 411.757 380.338 412.62 384.112 409.253C387.886 405.971 392.455 398.718 392.455 398.718C392.455 398.718 395.435 412.361 411.128 411.843C411.128 411.843 416.988 410.289 421.259 402.345C425.629 394.4 425.232 387.751 425.232 387.751Z" fill="white"/>
<path d="M199.272 336.2C204.636 344.23 204.04 353.211 197.882 356.319C191.823 359.342 182.586 355.37 177.223 347.339C171.859 339.308 172.455 330.328 178.613 327.219C184.672 324.11 193.909 328.083 199.272 336.2Z" fill="white"/>
<path d="M179.01 186.639H272.871L296.211 244.149H202.649L179.01 186.639Z" fill="#FFC059"/>
<path d="M539.056 152.012C539.056 157.453 533.99 161.856 527.733 161.856C521.476 161.856 516.41 157.453 516.41 152.012C516.41 146.572 521.476 142.168 527.733 142.168C533.99 142.168 539.056 146.572 539.056 152.012Z" fill="white"/>
<path d="M593.187 152.012C593.187 157.453 588.122 161.856 581.864 161.856C575.607 161.856 570.541 157.453 570.541 152.012C570.541 146.572 575.607 142.168 581.864 142.168C588.122 142.168 593.187 146.572 593.187 152.012Z" fill="white"/>
<path d="M638.081 142.168C644.338 142.168 649.404 146.572 649.404 152.012C649.404 157.453 644.338 161.856 638.081 161.856C631.824 161.856 626.758 157.453 626.758 152.012C626.758 146.572 631.824 142.168 638.081 142.168Z" fill="white"/>
<path d="M411.426 97.1793L444.302 48.2181L449.467 43.9869L453.241 43.4688L458.008 45.973L493.367 98.0428L494.659 102.792L491.381 107.455L487.805 108.75L415.101 108.319L411.426 106.419L409.638 102.792L411.426 97.1793Z" fill="white"/>
<path d="M381.629 215.394C381.629 215.394 371.995 226.533 380.139 235.082L392.058 233.096L390.469 217.294C390.568 217.294 384.013 217.208 381.629 215.394Z" fill="#1A1A1A"/>
<path d="M445.295 187.503C445.295 196.656 439.236 204.169 431.886 204.169C424.437 204.169 418.478 196.742 418.478 187.503C418.478 178.349 424.537 170.837 431.886 170.837C439.336 170.837 445.295 178.349 445.295 187.503Z" fill="#CCCCCC"/>
<path d="M434.469 204.169C439.735 204.169 444.004 196.9 444.004 187.934C444.004 178.969 439.735 171.7 434.469 171.7C429.203 171.7 424.934 178.969 424.934 187.934C424.934 196.9 429.203 204.169 434.469 204.169Z" fill="white"/>
<path d="M428.013 170.664C428.013 170.664 426.523 154.689 416.789 147.781C405.864 140.01 393.349 139.837 393.349 139.837C393.349 139.837 395.832 137.419 402.586 137.333C409.34 137.246 417.286 139.405 424.04 144.068C430.893 148.645 435.462 159.439 434.37 170.06L428.013 170.664Z" fill="#FFC059"/>
<path d="M424.636 387.406C424.636 387.406 403.381 376.698 394.938 376.526C386.496 376.353 387.787 376.353 387.787 376.353C387.787 376.353 372.293 370.826 369.015 373.417C369.015 373.417 379.941 360.637 399.607 362.019C419.372 363.487 424.735 385.074 424.636 387.406Z" fill="#1A1A1A"/>
<path d="M122.496 129.043C122.098 129.043 121.602 128.784 121.502 128.438C120.112 125.071 119.119 121.53 118.423 117.99C118.324 117.472 118.721 117.04 119.317 116.954C119.913 116.867 120.41 117.213 120.509 117.731C121.204 121.185 122.198 124.639 123.489 127.92C123.688 128.438 123.39 128.957 122.794 129.129C122.694 129.043 122.595 129.043 122.496 129.043ZM118.622 108.146C118.026 108.146 117.529 107.714 117.529 107.196C117.629 103.569 118.026 99.9425 118.821 96.4021C118.92 95.884 119.516 95.5386 120.112 95.7113C120.708 95.7977 121.105 96.3158 120.906 96.8339C120.112 100.288 119.715 103.742 119.615 107.282C119.615 107.714 119.119 108.146 118.622 108.146ZM123.29 87.3353C123.191 87.3353 122.992 87.3353 122.893 87.2489C122.297 87.0762 122.098 86.5581 122.297 86.04C123.39 83.7085 124.581 81.4634 125.873 79.3046C126.469 78.3547 127.164 77.3185 127.859 76.3686C128.157 75.9369 128.852 75.7642 129.349 76.1096C129.846 76.3686 130.044 76.9731 129.647 77.4049C128.952 78.3547 128.356 79.3046 127.76 80.2545C126.469 82.3269 125.277 84.572 124.283 86.8171C124.085 87.0762 123.687 87.3353 123.29 87.3353ZM204.735 85.3492C203.444 85.3492 202.053 85.0901 200.663 84.4857C200.166 84.313 199.868 83.7085 200.166 83.2767C200.365 82.7586 201.06 82.5859 201.557 82.845C202.649 83.2767 203.742 83.5358 204.735 83.5358C207.913 83.5358 209.403 81.2043 209.999 79.909C210.198 79.3909 210.794 79.2182 211.39 79.3909C211.986 79.5636 212.184 80.0817 211.986 80.5999C210.694 83.5358 208.013 85.3492 204.735 85.3492ZM192.022 77.6639C191.724 77.6639 191.326 77.4912 191.128 77.3185C188.744 74.4689 186.956 71.1012 185.864 67.3881C185.665 66.87 186.062 66.3519 186.658 66.2655C187.254 66.0928 187.85 66.4382 187.949 66.9564C189.042 70.4968 190.631 73.6054 192.816 76.2823C193.114 76.714 193.015 77.3185 192.618 77.5776C192.419 77.5776 192.22 77.6639 192.022 77.6639ZM210.496 70.6695C210.098 70.6695 209.701 70.4104 209.502 70.065C208.509 67.8199 206.92 65.8338 204.934 64.1931C204.04 63.5023 203.245 62.8115 202.252 62.207C201.755 61.8616 201.656 61.3435 202.053 60.9118C202.451 60.48 203.047 60.3937 203.543 60.7391C204.536 61.4299 205.43 62.0343 206.324 62.8115C208.609 64.6249 210.297 66.7837 211.39 69.3742C211.588 69.8923 211.39 70.4104 210.794 70.5831C210.694 70.6695 210.595 70.6695 210.496 70.6695ZM136.302 69.3742C136.004 69.3742 135.805 69.2878 135.606 69.1151C135.209 68.7697 135.209 68.1653 135.606 67.8199C138.487 65.143 141.665 62.8115 145.042 60.7391C145.539 60.48 146.234 60.5664 146.532 60.9981C146.83 61.4299 146.73 62.0343 146.234 62.2934C142.956 64.2795 139.877 66.5246 137.096 69.1151C136.798 69.2878 136.5 69.3742 136.302 69.3742ZM185.566 57.4577C184.87 57.4577 184.473 57.026 184.473 56.5079C184.473 56.0761 184.473 55.6443 184.473 55.2126C183.083 54.9535 181.692 54.7808 180.202 54.6081C179.606 54.5218 179.209 54.09 179.308 53.5719C179.408 53.0538 179.904 52.7084 180.5 52.7947C181.891 52.9674 183.281 53.1402 184.672 53.3992C184.87 50.895 185.367 48.3045 186.162 45.8003C186.261 45.2822 186.857 44.9368 187.453 45.1095C188.049 45.1958 188.347 45.7139 188.247 46.232C187.552 48.7362 187.056 51.3268 186.857 53.831C188.843 54.2627 190.83 54.7808 192.717 55.4716C193.313 55.6443 193.512 56.1624 193.313 56.6806C193.114 57.1987 192.419 57.3714 191.922 57.1987C190.234 56.5942 188.446 56.1624 186.658 55.7307C186.658 55.9897 186.658 56.3351 186.658 56.5942C186.559 57.026 186.162 57.4577 185.566 57.4577ZM156.365 57.3714C155.967 57.3714 155.57 57.1123 155.372 56.7669C155.173 56.2488 155.372 55.7307 155.967 55.558C158.053 54.7808 160.238 54.1764 162.423 53.7446C164.211 53.3129 166.098 53.0538 168.085 52.7947C168.681 52.7084 169.177 53.0538 169.277 53.5719C169.376 54.09 168.979 54.5218 168.383 54.6081C166.496 54.8672 164.708 55.1262 163.019 55.4716C160.934 55.9034 158.848 56.5079 156.861 57.1987C156.563 57.3714 156.464 57.3714 156.365 57.3714ZM191.426 36.9061C191.227 36.9061 191.128 36.9061 190.929 36.8198C190.432 36.5607 190.234 36.0426 190.432 35.6108C192.518 32.1568 194.902 29.3072 197.683 27.0621C198.08 26.7167 198.974 26.6303 199.372 26.9757C199.769 27.3211 199.868 27.8392 199.471 28.1846C196.591 30.5161 194.306 33.193 192.419 36.4744C192.121 36.7334 191.823 36.9061 191.426 36.9061ZM208.112 21.6219C207.814 21.6219 207.516 21.5356 207.218 21.2765C206.821 20.8448 206.92 20.3267 207.417 19.9813C210.794 17.7361 214.27 15.7501 217.746 14.023C218.243 13.764 218.938 13.9367 219.236 14.3684C219.534 14.8002 219.335 15.4046 218.839 15.6637C215.462 17.3907 212.085 19.2905 208.708 21.5356C208.509 21.5356 208.311 21.6219 208.112 21.6219ZM288.266 15.3183C288.067 15.3183 287.868 15.3183 287.67 15.1456C284.193 13.3322 280.518 11.7779 276.843 10.569C276.248 10.3963 276.049 9.87817 276.248 9.36006C276.446 8.84195 277.042 8.5829 277.638 8.84195C281.512 10.1372 285.286 11.6915 288.861 13.5913C289.358 13.8503 289.557 14.4548 289.259 14.8865C288.961 15.1456 288.564 15.3183 288.266 15.3183ZM229.268 11.0871C228.87 11.0871 228.473 10.828 228.275 10.4826C228.076 9.96452 228.275 9.44641 228.87 9.27371C232.843 7.89209 236.816 6.85587 240.789 6.16506C241.385 6.07871 241.882 6.42412 242.08 6.85587C242.18 7.37398 241.782 7.80574 241.286 7.97844C237.412 8.66925 233.539 9.70546 229.764 11.0007C229.566 11.0007 229.466 11.0871 229.268 11.0871ZM265.421 7.80574C261.548 7.20128 257.674 6.94222 253.999 6.94222H253.304C252.708 6.94222 252.211 6.51047 252.211 5.99236C252.211 5.47425 252.708 5.0425 253.304 5.0425H253.999C257.873 5.0425 261.846 5.3879 265.719 5.99236C266.315 6.07871 266.712 6.59682 266.613 7.11493C266.315 7.46033 265.918 7.80574 265.421 7.80574Z" fill="black"/>
<path d="M424.04 175.414C398.216 175.327 388.184 144.241 387.191 141.218C385.701 141.478 384.311 141.737 383.218 142.082C374.279 144.413 373.286 155.466 373.385 159.957C373.485 164.447 373.385 169.455 373.385 169.455L412.022 193.547C424.934 186.812 443.209 175.5 424.04 175.414Z" fill="white"/>
<path d="M416.889 226.102C414.108 211.336 423.841 200.974 423.841 200.974C423.841 200.974 430.595 185.862 430.099 184.567C429.701 183.531 410.333 185.085 400.203 186.035L419.471 198.038C419.471 198.038 410.433 202.873 407.552 215.049C404.672 227.224 407.85 238.968 416.491 243.717C421.954 246.653 432.185 248.467 442.713 247.085C430.297 245.963 419.074 237.846 416.889 226.102Z" fill="white"/>
<path d="M388.383 217.208C386.297 217.035 383.119 216.603 381.629 215.394C381.629 215.394 371.995 226.533 380.139 235.082L386.993 233.96C382.126 224.029 388.383 217.208 388.383 217.208Z" fill="white"/>
<path d="M594.776 356.492C585.539 356.492 578.487 353.815 573.819 348.375C566.966 340.517 567.164 329.464 568.952 324.37C571.634 316.684 571.038 314.18 569.151 306.581L568.853 305.459C567.562 300.277 569.747 294.147 574.216 289.829C578.586 285.598 584.645 283.698 591.498 284.303C598.451 284.907 603.715 287.498 606.894 291.815C610.37 296.478 610.866 302.868 608.483 309.258C604.708 319.188 608.582 323.333 608.681 323.42C614.541 328.946 618.216 339.308 614.343 347.253C612.356 351.311 607.589 356.233 595.869 356.579C595.571 356.492 595.173 356.492 594.776 356.492ZM589.015 286.03C582.559 286.03 578.289 288.706 575.805 291.038C571.833 294.837 569.846 300.537 570.939 305.113L571.237 306.236C573.124 314.007 573.819 316.857 570.939 324.974C569.151 330.069 569.349 340.431 575.408 347.339C579.878 352.434 586.83 354.938 595.869 354.679C604.212 354.42 609.873 351.656 612.456 346.475C615.932 339.308 612.356 329.637 607.092 324.629C606.894 324.456 602.225 319.793 606.397 308.654C608.681 302.782 608.185 296.996 605.006 292.851C602.225 289.052 597.458 286.807 591.201 286.202C590.505 286.116 589.711 286.03 589.015 286.03Z" fill="black"/>
<path d="M563.092 274.718C558.325 274.718 554.65 269.968 554.65 263.924C554.65 257.879 558.325 253.13 563.092 253.13C567.86 253.13 571.634 257.879 571.634 263.924C571.634 269.882 567.76 274.718 563.092 274.718ZM563.092 254.943C559.616 254.943 556.735 259.002 556.735 263.924C556.735 268.759 559.616 272.904 563.092 272.904C566.568 272.904 569.449 268.846 569.449 263.924C569.449 259.088 566.568 254.943 563.092 254.943Z" fill="black"/>
<path d="M620.997 408.821C620.501 408.821 620.103 408.562 620.004 408.13C619.905 407.612 620.203 407.18 620.799 407.008C621.295 406.921 632.519 404.59 633.214 394.832C633.413 392.242 632.618 390.256 630.93 388.874C627.453 386.024 621.196 386.542 621.097 386.542C620.501 386.629 620.004 386.197 619.905 385.679C619.805 385.161 620.302 384.729 620.898 384.643C621.196 384.643 628.248 384.038 632.419 387.492C634.605 389.306 635.498 391.81 635.3 394.918C634.505 406.058 621.295 408.735 621.196 408.821C621.097 408.735 620.997 408.821 620.997 408.821Z" fill="black"/>
<path d="M621.395 414.779C620.898 414.779 620.401 414.434 620.302 413.916C620.203 413.398 620.699 412.966 621.295 412.88C622.09 412.793 641.16 410.98 639.769 395.005C639.372 390.083 637.485 386.283 634.009 383.866C628.645 379.98 621.295 380.671 621.196 380.671C620.6 380.757 620.103 380.325 620.004 379.893C619.905 379.375 620.401 378.943 620.898 378.857C621.196 378.857 629.142 378.08 635.3 382.398C639.173 385.161 641.359 389.392 641.855 394.832C643.345 412.62 621.593 414.693 621.395 414.693C621.494 414.779 621.494 414.779 621.395 414.779Z" fill="black"/>
<path d="M599.146 424.192C595.372 424.192 576.501 424.019 576.501 420.306C576.501 419.788 576.997 419.356 577.593 419.356C578.09 419.356 578.586 419.701 578.686 420.133C579.679 421.083 587.426 422.378 599.246 422.378C611.363 422.378 619.209 421.083 620.103 420.133C620.103 419.615 620.501 419.27 621.097 419.27C621.693 419.27 622.09 419.788 622.09 420.306C621.991 424.019 602.921 424.192 599.146 424.192Z" fill="black"/>
<path d="M577.494 421.256C576.898 421.256 576.401 420.824 576.401 420.306V377.994C576.401 377.476 576.898 377.044 577.494 377.044C578.09 377.044 578.586 377.476 578.586 377.994V420.306C578.586 420.824 578.09 421.256 577.494 421.256Z" fill="black"/>
<path d="M620.997 421.256C620.401 421.256 619.905 420.824 619.905 420.306V377.735C619.905 377.216 620.401 376.785 620.997 376.785C621.593 376.785 622.09 377.216 622.09 377.735V420.392C621.991 420.824 621.593 421.256 620.997 421.256Z" fill="black"/>
<path d="M599.246 382.484C598.352 382.484 576.501 382.398 576.501 377.994C576.501 373.59 598.352 373.503 599.246 373.503C600.139 373.503 621.991 373.59 621.991 377.994C621.991 382.484 600.139 382.484 599.246 382.484ZM578.686 377.994C579.58 378.943 586.93 380.671 599.246 380.671C611.959 380.671 619.309 378.943 619.905 377.994C619.309 377.13 611.959 375.403 599.246 375.403C586.83 375.403 579.48 377.044 578.686 377.994Z" fill="black"/>
<path d="M475.092 249.158C474.695 249.158 474.397 248.985 474.198 248.726C473.9 248.294 474.099 247.69 474.595 247.431C478.767 245.358 478.668 239.832 478.171 236.809C477.376 231.283 474.893 227.397 470.821 225.066C469.927 224.547 468.934 224.116 467.742 223.684C465.855 222.993 463.868 222.561 461.783 222.043C457.611 221.093 453.34 220.144 450.063 217.467C447.083 215.135 445.792 211.249 446.487 207.018C450.659 180.163 454.83 165.138 455.227 163.583C454.731 156.589 450.956 150.976 444.103 146.918C434.469 141.305 420.862 139.837 411.227 139.664C410.631 139.664 410.135 139.232 410.234 138.714C410.234 138.196 410.731 137.851 411.327 137.851C421.358 138.023 435.363 139.491 445.394 145.45C452.943 149.854 457.015 155.985 457.512 163.67C457.512 163.756 457.512 163.842 457.512 163.929C457.512 164.102 453.142 179.127 448.771 207.277C448.175 210.904 449.268 214.185 451.751 216.085C454.631 218.416 458.505 219.28 462.577 220.23C464.663 220.748 466.848 221.18 468.835 221.871C470.126 222.302 471.218 222.82 472.212 223.339C476.88 225.929 479.661 230.333 480.555 236.378C481.449 242.508 479.76 246.912 475.887 248.898C475.39 249.158 475.291 249.158 475.092 249.158Z" fill="black"/>
<path d="M373.882 168.246C373.385 168.246 372.889 167.901 372.789 167.383C369.512 142.514 385.006 140.355 385.602 140.269C386.794 139.837 388.88 139.405 391.363 138.973C391.959 138.887 392.455 139.232 392.654 139.75C392.753 140.269 392.356 140.7 391.76 140.873C389.476 141.218 387.489 141.65 386.198 142.082C385.403 142.168 371.895 144.241 374.974 167.21C375.074 167.728 374.577 168.16 374.081 168.246C373.981 168.246 373.981 168.246 373.882 168.246Z" fill="black"/>
<path d="M511.742 393.71C511.444 393.71 511.246 393.623 511.047 393.451C476.979 367.545 400.5 363.314 399.706 363.314C399.11 363.314 398.713 362.882 398.713 362.364C398.713 361.846 399.309 361.587 399.805 361.501C400.6 361.501 477.873 365.818 512.437 392.155C512.835 392.501 512.934 393.105 512.537 393.451C512.338 393.623 512.04 393.71 511.742 393.71Z" fill="black"/>
<path d="M536.474 411.93C536.275 411.93 536.176 411.93 535.977 411.843C535.48 411.584 535.282 411.066 535.48 410.634C557.729 373.244 523.959 308.395 503.002 279.294C497.638 271.868 491.679 263.924 484.826 256.929C478.568 250.539 470.225 246.481 460.69 242.163C460.194 241.904 459.995 241.386 460.194 240.868C460.491 240.436 461.087 240.263 461.683 240.436C471.02 244.667 479.959 249.071 486.415 255.634C493.467 262.801 499.426 270.745 504.79 278.258C527.534 309.862 560.013 373.417 537.367 411.412C537.169 411.757 536.871 411.93 536.474 411.93Z" fill="black"/>
<path d="M316.175 293.542C316.076 293.542 315.877 293.542 315.778 293.456C315.281 293.283 314.983 292.679 315.182 292.247C315.579 291.47 315.977 290.606 316.374 289.829C332.762 257.016 354.514 238.623 383.02 233.528C385.205 233.096 391.959 232.146 391.959 232.146L392.356 233.96C392.356 233.96 385.701 234.996 383.516 235.341C355.309 240.35 334.649 257.879 318.36 290.52C317.963 291.297 317.566 292.074 317.169 292.938C316.97 293.283 316.573 293.542 316.175 293.542Z" fill="black"/>
<path d="M390.469 218.157C388.482 218.157 386.297 217.985 384.211 217.38C379.742 216.171 376.663 213.235 374.875 208.572C372.193 201.405 372.293 193.893 372.491 186.553V185.603C372.591 181.717 372.69 177.745 372.889 173.859L373.087 168.074C373.087 167.901 373.087 167.728 373.187 167.642C373.385 167.124 373.981 166.865 374.478 167.037C375.074 167.21 375.372 167.728 375.173 168.16L374.974 173.946C374.875 177.831 374.677 181.804 374.577 185.689V186.639C374.478 193.806 374.279 201.233 376.862 208.054C378.451 212.113 381.033 214.617 384.807 215.653C387.092 216.258 389.873 216.517 393.349 216.171C396.826 215.912 401.99 215.394 405.566 214.79C406.162 214.703 406.758 215.049 406.857 215.481C406.956 215.999 406.559 216.43 406.063 216.603C402.388 217.208 397.123 217.812 393.647 218.071C392.654 218.157 391.661 218.157 390.469 218.157Z" fill="black"/>
<path d="M419.471 181.804C390.866 177.227 382.126 162.029 379.543 154.776C378.55 158.402 376.862 163.842 375.173 168.16C374.974 168.678 374.379 168.851 373.783 168.765C373.187 168.592 372.889 168.074 373.087 167.556C375.868 160.647 378.451 150.631 378.451 150.544C378.55 150.113 378.947 149.854 379.543 149.854C380.04 149.854 380.437 150.199 380.537 150.717C380.636 151.667 383.616 174.291 419.57 180.077C420.166 180.163 420.564 180.681 420.464 181.113C420.464 181.545 419.968 181.804 419.471 181.804Z" fill="black"/>
<path d="M400.898 178.177C400.004 178.09 399.507 178.349 399.209 181.026C398.911 183.962 399.805 184.48 400.6 184.48C401.394 184.48 402.09 183.531 402.09 181.458C402.09 179.299 401.99 178.349 400.898 178.177Z" fill="black"/>
<path d="M377.259 176.968C376.365 176.795 375.868 177.141 375.471 179.817C375.074 182.753 375.968 183.358 376.762 183.358C377.557 183.358 378.351 182.494 378.351 180.336C378.451 178.177 378.351 177.141 377.259 176.968Z" fill="black"/>
<path d="M374.18 171.614C373.882 171.614 373.584 171.528 373.385 171.269C372.988 170.923 373.087 170.319 373.485 169.973C374.776 168.937 377.16 167.728 381.629 168.765C382.225 168.937 382.523 169.369 382.424 169.887C382.324 170.405 381.728 170.664 381.133 170.578C377.656 169.801 376.067 170.492 374.875 171.355C374.676 171.528 374.379 171.614 374.18 171.614Z" fill="black"/>
<path d="M397.223 254.943C396.726 254.943 396.329 254.857 395.832 254.77C389.774 252.698 390.668 236.291 390.965 233.01L389.972 217.553C389.972 217.035 390.37 216.603 390.965 216.603C391.561 216.603 392.058 216.949 392.058 217.467L393.051 233.01C392.555 240.177 392.952 251.834 396.627 253.043C399.607 254.08 408.148 246.912 413.114 241.386C413.512 240.954 414.108 240.954 414.604 241.213C415.101 241.559 415.101 242.077 414.803 242.508C412.817 244.754 403.182 254.943 397.223 254.943Z" fill="black"/>
<path d="M379.841 235.082C379.543 235.082 379.146 234.91 378.947 234.651C370.902 224.72 381.43 215.049 381.53 214.962C381.927 214.617 382.622 214.617 383.02 214.962C383.417 215.308 383.417 215.912 383.02 216.258C382.622 216.603 373.584 224.893 380.636 233.528C380.934 233.96 380.835 234.564 380.338 234.823C380.239 235.082 380.04 235.082 379.841 235.082Z" fill="black"/>
<path d="M432.482 248.294C427.119 248.294 421.855 247.431 417.286 245.099C409.837 241.3 405.765 234.219 404.97 223.943C404.076 210.818 414.406 200.714 419.968 197.174C420.464 196.829 421.06 196.915 421.458 197.347C421.756 197.779 421.656 198.297 421.259 198.642C415.995 201.923 406.261 211.508 407.056 223.77C407.751 233.355 411.525 240.004 418.279 243.458C433.774 251.403 460.293 240.436 460.591 240.35C461.087 240.091 461.783 240.35 461.981 240.781C462.279 241.213 461.981 241.818 461.485 241.99C460.789 242.422 446.586 248.294 432.482 248.294Z" fill="black"/>
<path d="M468.437 374.453C467.742 374.367 467.345 373.935 467.345 373.417C471.02 341.294 450.361 287.929 450.162 287.411C449.963 286.893 450.261 286.375 450.857 286.202C451.453 286.03 452.049 286.289 452.248 286.807C452.446 287.325 473.205 341.122 469.53 373.59C469.431 374.021 469.033 374.453 468.437 374.453Z" fill="black"/>
<path d="M391.363 203.305C390.37 203.305 389.277 203.132 388.184 202.873C387.588 202.701 387.291 202.269 387.39 201.751C387.589 201.233 388.184 200.974 388.681 201.06C391.065 201.664 393.051 201.492 394.442 200.628C396.925 199.16 397.223 196.138 397.223 196.138C397.322 195.62 397.819 195.274 398.415 195.274C399.011 195.361 399.408 195.792 399.408 196.311C399.408 196.483 398.911 200.283 395.733 202.182C394.442 202.873 392.952 203.305 391.363 203.305Z" fill="black"/>
<path d="M488.699 152.962H452.049C451.453 152.962 450.957 152.53 450.957 152.012C450.957 151.494 451.453 151.062 452.049 151.062H488.699C489.295 151.062 489.792 151.494 489.792 152.012C489.792 152.53 489.295 152.962 488.699 152.962Z" fill="black"/>
<path d="M373.485 152.962H357.096C332.564 152.962 312.6 135.606 312.6 114.277V50.1179C312.6 28.7891 332.564 11.4325 357.096 11.4325H513.53C538.063 11.4325 558.027 28.7891 558.027 50.1179V114.277C558.027 114.795 557.53 115.227 556.934 115.227C556.338 115.227 555.841 114.795 555.841 114.277V50.1179C555.841 29.8253 536.871 13.2459 513.431 13.2459H357.096C333.755 13.2459 314.685 29.739 314.685 50.1179V114.277C314.685 134.569 333.656 151.149 357.096 151.149H373.485C374.081 151.149 374.577 151.581 374.577 152.099C374.478 152.53 374.081 152.962 373.485 152.962Z" fill="black"/>
<path d="M468.338 115.745H402.288C397.819 115.745 394.442 114.363 392.753 111.859C391.065 109.355 391.462 106.16 393.746 102.792L426.622 53.831C428.907 50.4633 431.986 48.5635 435.363 48.5635C438.74 48.5635 441.819 50.4633 444.103 53.831L476.979 102.792C479.264 106.16 479.562 109.441 477.972 111.859C476.284 114.45 472.808 115.745 468.338 115.745ZM435.263 50.4633C432.681 50.4633 430.297 52.0176 428.41 54.7808L395.534 103.742C393.647 106.505 393.349 109.096 394.541 110.996C395.832 112.895 398.514 113.931 402.189 113.931H468.338C472.013 113.931 474.794 112.895 475.986 110.996C477.277 109.096 476.88 106.505 474.993 103.742L442.117 54.7808C440.329 52.0176 437.846 50.4633 435.263 50.4633Z" fill="black"/>
<path d="M196.988 350.448C194.902 350.448 192.717 349.93 190.433 348.98C186.36 347.166 182.586 343.971 179.904 339.913C174.243 331.45 175.037 321.865 181.593 318.584C188.247 315.303 198.08 319.447 203.742 327.91C209.403 336.372 208.609 345.957 202.053 349.239C200.563 350.016 198.875 350.448 196.988 350.448ZM186.758 319.275C185.268 319.275 183.977 319.534 182.685 320.138C177.123 322.902 176.726 331.364 181.692 338.963C184.175 342.676 187.552 345.612 191.326 347.253C194.902 348.807 198.279 348.98 200.961 347.598C206.523 344.835 206.92 336.372 201.954 328.773C198.08 322.902 191.922 319.275 186.758 319.275Z" fill="black"/>
<path d="M705.621 412.62H629.638C629.043 412.62 628.546 412.189 628.546 411.671C628.546 411.153 629.043 410.721 629.638 410.721H705.621C706.216 410.721 706.713 411.153 706.713 411.671C706.713 412.275 706.216 412.62 705.621 412.62Z" fill="black"/>
<path d="M577.494 412.62H1.61965C1.02371 412.62 0.5271 412.189 0.5271 411.671C0.5271 411.153 1.02371 410.721 1.61965 410.721H577.593C578.189 410.721 578.686 411.153 578.686 411.671C578.586 412.275 578.09 412.62 577.494 412.62Z" fill="black"/>
<path d="M323.625 412.62C323.029 412.62 322.532 412.189 322.532 411.671C322.532 411.153 323.029 410.721 323.625 410.721C331.968 410.721 339.616 407.353 344.482 401.481C349.349 395.609 350.64 388.269 348.058 381.361L306.442 272.386C302.965 263.233 293.132 257.016 282.008 257.016H106.803C104.915 257.016 102.929 257.188 101.141 257.534C100.545 257.62 99.9493 257.361 99.85 256.843C99.7507 256.325 100.049 255.807 100.645 255.72C102.631 255.288 104.717 255.116 106.803 255.116H282.008C294.026 255.116 304.654 261.765 308.428 271.695L349.945 380.757C352.825 388.269 351.336 396.127 346.072 402.517C340.907 408.994 332.663 412.62 323.625 412.62Z" fill="black"/>
<path d="M311.706 412.62H136.5C124.482 412.62 113.855 406.23 110.08 396.732L68.464 292.42C65.6829 285.511 66.9741 278.085 71.8409 272.041C77.0057 265.737 85.6468 261.938 94.8839 261.938H270.089C282.108 261.938 292.735 268.328 296.509 277.826L338.026 382.138C340.807 389.047 339.516 396.473 334.649 402.517C329.485 408.821 320.943 412.62 311.706 412.62ZM94.8839 263.751C86.3421 263.751 78.3962 267.291 73.6287 273.077C69.0599 278.603 67.9673 285.425 70.4504 291.815L111.967 396.127C115.444 404.849 125.277 410.807 136.401 410.807H311.606C320.148 410.807 328.094 407.353 332.862 401.481C337.43 395.955 338.523 389.133 336.04 382.743L294.523 278.431C291.047 269.709 281.214 263.751 270.089 263.751H94.8839Z" fill="black"/>
<path d="M374.974 412.62C370.902 412.62 368.121 411.671 366.83 409.771C364.248 406.144 367.823 400.272 370.604 395.523C371.2 394.573 371.697 393.623 372.193 392.846C372.69 391.983 373.087 390.946 373.584 389.91C376.564 383.347 381.033 373.417 396.528 375.749C397.322 375.921 414.604 380.239 425.232 386.629C425.728 386.888 425.828 387.492 425.53 387.924C425.232 388.356 424.537 388.442 424.04 388.183C413.71 381.966 396.23 377.648 396.031 377.562C382.225 375.489 378.351 384.211 375.471 390.601C374.974 391.723 374.478 392.76 373.981 393.623C373.584 394.4 372.988 395.35 372.392 396.386C370.008 400.445 366.631 406.058 368.518 408.821C369.412 410.116 371.498 410.721 374.875 410.721C389.078 410.721 391.561 395.178 391.561 395.005C391.561 394.487 392.058 394.055 392.654 394.055C393.25 394.055 393.747 394.487 393.747 395.005C393.747 397.336 390.072 412.62 374.974 412.62Z" fill="black"/>
<path d="M362.36 412.62C353.819 412.102 350.839 409.512 349.846 407.439C348.455 404.503 350.144 401.481 352.13 399.495C353.719 397.941 355.408 394.228 357.196 390.342C359.679 384.815 362.46 378.598 366.333 374.885C373.385 368.236 387.886 375.23 388.482 375.576C388.979 375.835 389.178 376.439 388.88 376.871C388.582 377.303 387.886 377.476 387.39 377.216C387.291 377.13 373.783 370.567 367.923 376.18C364.347 379.548 361.566 385.679 359.182 391.033C357.295 395.35 355.607 398.977 353.719 400.79C352.23 402.258 350.839 404.676 351.832 406.749C352.925 409.08 356.6 410.462 362.46 410.807C363.056 410.807 363.453 411.325 363.453 411.757C363.354 412.275 362.857 412.62 362.36 412.62Z" fill="black"/>
<path d="M412.618 412.707C412.221 412.707 411.823 412.707 411.525 412.707C392.455 411.843 390.965 398.373 390.965 398.2C390.965 397.682 391.363 397.25 391.959 397.164C392.555 397.164 393.051 397.509 393.151 398.027C393.151 398.545 394.442 410.03 411.625 410.807C412.717 410.893 413.71 410.807 414.604 410.721C415.101 410.634 415.697 411.066 415.796 411.498C415.896 412.016 415.498 412.448 414.902 412.534C414.207 412.62 413.412 412.707 412.618 412.707Z" fill="black"/>
<path d="M412.022 412.621C411.625 412.621 411.327 412.448 411.128 412.189C410.83 411.757 410.929 411.153 411.426 410.893C420.961 405.453 425.828 395.264 424.04 384.988C421.458 370.913 406.857 361.155 391.561 363.228C386.496 363.918 378.848 365.818 369.909 374.022C369.512 374.367 368.816 374.453 368.419 374.108C368.022 373.762 367.923 373.158 368.419 372.813C377.756 364.177 385.9 362.191 391.263 361.414C407.652 359.083 423.444 369.618 426.126 384.729C428.112 395.696 422.848 406.576 412.618 412.448C412.419 412.621 412.221 412.621 412.022 412.621Z" fill="black"/>
<path d="M348.455 379.98C347.661 379.807 347.263 379.289 347.462 378.857C347.561 378.598 349.349 372.813 354.514 370.913C361.069 368.581 368.518 373.762 368.816 374.022C369.313 374.367 369.313 374.971 369.015 375.317C368.618 375.749 367.923 375.749 367.525 375.489C367.426 375.403 360.771 370.74 355.408 372.64C351.236 374.194 349.548 379.289 349.548 379.375C349.349 379.721 348.952 379.98 348.455 379.98Z" fill="black"/>
<path d="M342.893 411.671C341.006 411.671 338.821 411.239 336.437 410.116C335.941 409.857 335.742 409.339 336.04 408.821C336.338 408.389 337.033 408.217 337.53 408.476C345.178 412.189 350.044 407.094 350.243 406.921C350.64 406.49 351.236 406.49 351.733 406.749C352.23 407.094 352.23 407.612 351.932 408.044C351.832 408.044 348.356 411.671 342.893 411.671Z" fill="black"/>
<path d="M434.072 205.118H431.589C423.742 205.118 417.286 197.26 417.286 187.503C417.286 177.831 423.742 169.887 431.589 169.887H433.376C433.972 169.887 434.469 170.319 434.469 170.837C434.469 171.355 433.972 171.787 433.376 171.787H431.589C424.934 171.787 419.471 178.868 419.471 187.503C419.471 196.138 424.934 203.219 431.589 203.219H434.072C434.668 203.219 435.164 203.65 435.164 204.169C435.164 204.687 434.668 205.118 434.072 205.118Z" fill="black"/>
<path d="M434.469 205.118C428.013 205.118 423.047 197.433 423.047 187.503C423.047 177.659 428.112 169.887 434.469 169.887C440.925 169.887 445.891 177.572 445.891 187.503C445.891 197.347 440.925 205.118 434.469 205.118ZM434.469 171.787C429.403 171.787 425.133 178.954 425.133 187.503C425.133 196.051 429.403 203.219 434.469 203.219C439.534 203.219 443.805 196.051 443.805 187.503C443.805 179.04 439.534 171.787 434.469 171.787Z" fill="black"/>
<path d="M373.485 202.355C373.187 202.355 372.988 202.269 372.789 202.096C368.816 199.16 366.83 194.238 366.83 187.503C366.83 181.199 368.916 176.277 372.789 173.168C373.187 172.823 373.882 172.823 374.279 173.255C374.676 173.6 374.677 174.205 374.18 174.55C370.704 177.227 368.916 181.717 368.916 187.503C368.916 193.634 370.704 198.124 374.18 200.628C374.677 200.974 374.676 201.578 374.279 201.923C374.081 202.182 373.783 202.355 373.485 202.355Z" fill="black"/>
<path d="M435.263 171.614C434.668 171.614 434.171 171.182 434.171 170.664C435.263 141.996 412.32 139.923 411.227 139.664C411.128 139.664 411.029 139.578 410.929 139.578C404.97 138.11 399.408 138.196 396.528 139.146C402.189 139.837 413.015 142.082 420.663 149.163C426.523 154.603 429.304 161.856 429.006 170.664C429.006 171.182 428.51 171.528 427.914 171.528C427.318 171.528 426.821 171.096 426.92 170.578C427.218 162.288 424.636 155.466 419.173 150.458C409.241 141.218 393.051 140.7 392.853 140.7C392.356 140.7 391.959 140.441 391.859 140.096C391.76 139.75 391.859 139.319 392.257 139.06C392.555 138.887 400.6 135.088 411.724 136.987C414.108 137.505 437.548 141.564 436.356 170.751C436.356 171.269 435.859 171.614 435.263 171.614Z" fill="black"/>
<path d="M352.627 373.935C352.13 373.935 351.733 373.676 351.634 373.244C333.656 316.512 347.959 281.194 348.058 280.848C348.257 280.33 348.853 280.158 349.448 280.33C350.044 280.503 350.243 281.021 350.044 281.539C349.945 281.885 335.841 316.684 353.62 372.813C353.819 373.331 353.421 373.849 352.925 373.935C352.825 373.849 352.726 373.935 352.627 373.935Z" fill="black"/>
<path d="M85.5475 265.133C85.1502 265.133 84.8523 264.96 84.6536 264.701C84.3556 264.269 84.5543 263.665 85.0509 263.406L100.446 255.893C100.943 255.634 101.638 255.807 101.936 256.238C102.234 256.67 102.035 257.275 101.539 257.534L86.1435 265.046C85.8455 265.133 85.7462 265.133 85.5475 265.133Z" fill="black"/>
<path d="M659.733 229.383C662.316 229.383 664.401 227.57 664.401 225.325C664.401 223.079 662.316 221.266 659.733 221.266C657.151 221.266 655.065 223.079 655.065 225.325C655.065 227.57 657.151 229.383 659.733 229.383Z" fill="#1A1A1A"/>
<path d="M695.788 229.642C698.469 229.642 700.654 227.742 700.654 225.411C700.654 223.079 698.469 221.18 695.788 221.18C693.106 221.18 690.921 223.079 690.921 225.411C690.921 227.742 693.106 229.642 695.788 229.642Z" fill="#1A1A1A"/>
<path d="M731.842 229.297C734.325 229.297 736.411 227.57 736.411 225.325C736.411 223.166 734.424 221.352 731.842 221.352C729.359 221.352 727.273 223.079 727.273 225.325C727.372 227.57 729.359 229.297 731.842 229.297Z" fill="#1A1A1A"/>
<path d="M659.733 260.988C662.415 260.988 664.6 259.088 664.6 256.756C664.6 254.425 662.415 252.525 659.733 252.525C657.052 252.525 654.866 254.425 654.866 256.756C654.866 259.088 657.052 260.988 659.733 260.988Z" fill="#1A1A1A"/>
<path d="M695.787 261.16C698.569 261.16 700.952 259.174 700.952 256.67C700.952 254.252 698.668 252.18 695.787 252.18C693.006 252.18 690.623 254.166 690.623 256.67C690.722 259.174 693.006 261.16 695.787 261.16Z" fill="#1A1A1A"/>
<path d="M731.842 260.901C734.424 260.901 736.609 259.088 736.609 256.756C736.609 254.511 734.523 252.612 731.842 252.612C729.259 252.612 727.074 254.425 727.074 256.756C727.174 259.002 729.259 260.901 731.842 260.901Z" fill="#1A1A1A"/>
<path d="M659.733 292.074C662.257 292.074 664.302 290.296 664.302 288.102C664.302 285.908 662.257 284.13 659.733 284.13C657.21 284.13 655.164 285.908 655.164 288.102C655.164 290.296 657.21 292.074 659.733 292.074Z" fill="#1A1A1A"/>
<path d="M695.788 292.247C698.37 292.247 700.555 290.433 700.555 288.102C700.555 285.857 698.469 283.957 695.788 283.957C693.205 283.957 691.02 285.77 691.02 288.102C691.02 290.347 693.205 292.247 695.788 292.247Z" fill="#1A1A1A"/>
<path d="M731.842 291.988C734.325 291.988 736.311 290.261 736.311 288.102C736.311 285.943 734.325 284.216 731.842 284.216C729.359 284.216 727.372 285.943 727.372 288.102C727.471 290.261 729.458 291.988 731.842 291.988Z" fill="#1A1A1A"/>
<path d="M488.699 217.38C488.6 217.38 488.401 217.38 488.302 217.294C487.905 217.121 487.607 216.776 487.607 216.43V136.728C487.607 124.38 499.227 114.277 513.431 114.277H650.099C664.302 114.277 675.923 124.38 675.923 136.728V168.937C675.923 181.285 664.302 191.389 650.099 191.389H518.993L489.494 217.035C489.295 217.208 488.997 217.38 488.699 217.38ZM513.53 116.09C500.419 116.09 489.792 125.33 489.792 136.728V214.185L517.801 189.834C517.999 189.662 518.297 189.575 518.595 189.575H650.298C663.408 189.575 674.036 180.336 674.036 168.937V136.728C674.036 125.33 663.408 116.09 650.298 116.09H513.53V116.09Z" fill="black"/>
<path d="M581.864 162.72C575.011 162.72 569.449 157.884 569.449 151.926C569.449 145.968 575.011 141.132 581.864 141.132C588.717 141.132 594.279 145.968 594.279 151.926C594.18 157.971 588.618 162.72 581.864 162.72ZM581.864 143.118C576.203 143.118 571.634 147.09 571.634 152.012C571.634 156.934 576.203 160.907 581.864 160.907C587.526 160.907 592.094 156.934 592.094 152.012C592.094 147.09 587.526 143.118 581.864 143.118Z" fill="black"/>
<path d="M527.733 162.72C520.88 162.72 515.318 157.884 515.318 151.926C515.318 145.968 520.88 141.132 527.733 141.132C534.586 141.132 540.148 145.968 540.148 151.926C540.148 157.971 534.586 162.72 527.733 162.72ZM527.733 143.118C522.072 143.118 517.503 147.09 517.503 152.012C517.503 156.934 522.072 160.907 527.733 160.907C533.395 160.907 537.963 156.934 537.963 152.012C537.963 147.09 533.395 143.118 527.733 143.118Z" fill="black"/>
<path d="M638.081 162.72C631.228 162.72 625.666 157.884 625.666 151.926C625.666 145.968 631.228 141.132 638.081 141.132C644.934 141.132 650.496 145.968 650.496 151.926C650.496 157.971 644.934 162.72 638.081 162.72ZM638.081 143.118C632.419 143.118 627.851 147.09 627.851 152.012C627.851 156.934 632.419 160.907 638.081 160.907C643.742 160.907 648.311 156.934 648.311 152.012C648.311 147.09 643.742 143.118 638.081 143.118Z" fill="black"/>
<path d="M284.293 233.873H190.73C190.135 233.873 189.638 233.442 189.638 232.923C189.638 232.405 190.135 231.974 190.73 231.974H282.803L260.157 176.277H167.092C166.496 176.277 165.999 175.845 165.999 175.327C165.999 174.809 166.496 174.377 167.092 174.377H260.952C261.448 174.377 261.846 174.636 261.945 174.982L285.385 232.492C285.485 232.751 285.485 233.096 285.286 233.355C284.988 233.701 284.591 233.873 284.293 233.873Z" fill="black"/>
<path d="M190.73 233.873C190.333 233.873 189.837 233.614 189.737 233.269L166.297 175.759C166.098 175.241 166.396 174.723 166.992 174.55C167.588 174.377 168.184 174.636 168.383 175.154L191.823 232.664C192.022 233.183 191.724 233.701 191.128 233.873C190.929 233.873 190.83 233.873 190.73 233.873Z" fill="black"/>
<path d="M172.157 188.453H118.721C118.125 188.453 117.629 188.021 117.629 187.503C117.629 186.985 118.125 186.553 118.721 186.553H172.157C172.753 186.553 173.25 186.985 173.25 187.503C173.25 188.021 172.753 188.453 172.157 188.453Z" fill="black"/>
<path d="M184.374 176.363C183.977 176.363 183.48 176.104 183.381 175.759L170.866 145.104H100.843C100.247 145.104 99.7507 144.673 99.7507 144.154C99.7507 143.636 100.247 143.205 100.843 143.205H171.66C172.157 143.205 172.554 143.464 172.654 143.809L185.367 175.068C185.566 175.586 185.268 176.104 184.672 176.277C184.672 176.363 184.473 176.363 184.374 176.363Z" fill="black"/>
<path d="M118.721 188.453C118.324 188.453 117.827 188.194 117.728 187.848L100.049 144.5C99.85 143.982 100.148 143.464 100.744 143.291C101.34 143.118 101.936 143.377 102.134 143.895L119.814 187.244C120.013 187.762 119.715 188.28 119.119 188.453C119.019 188.366 118.821 188.453 118.721 188.453Z" fill="black"/>
<path d="M252.907 199.247H193.512C192.916 199.247 192.419 198.815 192.419 198.297C192.419 197.779 192.916 197.347 193.512 197.347H252.907C253.503 197.347 253.999 197.779 253.999 198.297C253.999 198.815 253.503 199.247 252.907 199.247Z" fill="black"/>
<path d="M257.773 210.99H198.378C197.782 210.99 197.286 210.559 197.286 210.04C197.286 209.522 197.782 209.091 198.378 209.091H257.773C258.369 209.091 258.866 209.522 258.866 210.04C258.866 210.559 258.369 210.99 257.773 210.99Z" fill="black"/>
<path d="M153.981 243.372C153.782 243.372 153.484 243.286 153.385 243.199C150.107 241.041 146.929 238.623 144.049 236.118C143.651 235.773 143.651 235.169 144.049 234.823C144.446 234.478 145.141 234.478 145.539 234.823C148.419 237.327 151.498 239.573 154.676 241.731C155.173 242.077 155.272 242.595 154.875 243.027C154.676 243.286 154.279 243.372 153.981 243.372ZM136.699 228.347C136.401 228.347 136.004 228.261 135.805 228.001C133.322 225.152 131.137 222.13 129.051 218.935C128.753 218.503 128.952 217.898 129.448 217.639C129.945 217.38 130.64 217.553 130.938 217.985C132.925 221.093 135.11 224.029 137.493 226.793C137.891 227.224 137.791 227.829 137.295 228.088C137.195 228.347 136.997 228.347 136.699 228.347ZM124.879 209.781C124.482 209.781 124.085 209.522 123.886 209.177C122.992 207.191 122.198 205.205 121.403 203.046C121.204 202.528 121.502 202.01 122.098 201.923C122.694 201.751 123.29 202.01 123.39 202.528C124.085 204.6 124.879 206.586 125.773 208.486C125.972 209.004 125.674 209.522 125.177 209.695C125.177 209.781 125.078 209.781 124.879 209.781Z" fill="black"/>
<path d="M383.516 196.311C381.629 196.311 379.742 195.62 378.55 194.325C377.16 192.943 376.762 191.043 377.358 189.23C378.252 186.812 380.239 186.985 381.331 187.157C381.629 187.157 381.927 187.244 382.026 187.157C382.622 185.776 383.218 180.249 383.417 176.882C383.417 176.363 383.814 176.104 384.509 176.018C385.105 176.018 385.503 176.45 385.503 176.968C385.403 177.831 384.807 185.776 384.013 187.762C383.318 189.23 381.828 189.143 381.033 188.971C380.04 188.884 379.742 188.798 379.345 189.834C378.848 191.043 379.146 192.252 380.04 193.202C381.033 194.238 382.622 194.67 384.212 194.497C384.807 194.411 385.304 194.756 385.403 195.274C385.503 195.792 385.105 196.224 384.509 196.311C384.311 196.311 383.914 196.311 383.516 196.311Z" fill="black"/>
</svg>
