<svg width="18" height="20" viewBox="0 0 18 20" fill="none" xmlns="http://www.w3.org/2000/svg">
<path d="M17.8781 17.5048V10.4471C17.8781 9.17305 16.6825 8.1336 15.2171 8.1336H14.5472V4.87773C14.5472 2.1881 12.0304 0 8.93674 0C5.84307 0 3.33092 2.19215 3.33092 4.87773V5.43993C3.33092 5.82416 3.68914 6.13155 4.12644 6.13155C4.56374 6.13155 4.9266 5.82012 4.9266 5.43993V4.87773C4.9266 2.95253 6.72698 1.38728 8.94139 1.38728C11.1558 1.38728 12.9562 2.95253 12.9562 4.87773V8.1336H2.66102C1.1956 8.1336 0 9.16901 0 10.4471V17.5048C0 18.7789 1.1956 19.8183 2.66102 19.8183H15.2218C16.6872 19.8143 17.8781 18.7789 17.8781 17.5048ZM1.60033 17.5048V10.4471C1.60033 9.93747 2.0795 9.52088 2.66567 9.52088H15.2218C15.8079 9.52088 16.2871 9.93747 16.2871 10.4471V17.5048C16.2871 18.0145 15.8079 18.431 15.2218 18.431H2.66102C2.07485 18.427 1.60033 18.0145 1.60033 17.5048Z" fill="black"/>
<path d="M8.94134 12.4249C8.49939 12.4249 8.14117 12.7363 8.14117 13.1165V14.9082C8.14117 15.2925 8.49939 15.5998 8.94134 15.5998C9.38329 15.5998 9.73685 15.2884 9.73685 14.9082V13.1165C9.73685 12.7363 9.38329 12.4249 8.94134 12.4249Z" fill="black"/>
</svg>
