<svg width="16" height="15" viewBox="0 0 16 15" fill="none" xmlns="http://www.w3.org/2000/svg">
<path d="M15.8041 13.9347L11.9576 10.3286C12.911 9.23878 13.4857 7.84286 13.4857 6.32143C13.4857 2.83163 10.4653 0 6.74286 0C3.01714 0 0 2.83163 0 6.32143C0 9.81122 3.01714 12.6429 6.74286 12.6429C8.36571 12.6429 9.85143 12.1071 11.0139 11.2133L14.8604 14.8163C15.1216 15.0612 15.5429 15.0612 15.8041 14.8163C16.0653 14.5745 16.0653 14.1765 15.8041 13.9347ZM6.74286 11.3847C3.76163 11.3847 1.33878 9.11327 1.33878 6.32143C1.33878 3.52959 3.76163 1.2551 6.74286 1.2551C9.72082 1.2551 12.1469 3.52959 12.1469 6.32143C12.1469 9.11327 9.72082 11.3847 6.74286 11.3847Z" fill="#1A1A1A"/>
</svg>
